Coordinates
nRows=370
nColumns=2
inDegrees=yes
endheader
time	ankle_angle_r	
3.16008	  9.643647	
3.19334	  9.636998	
3.22661	  9.624645	
3.25987	  9.611308	
3.29314	  9.609863	
3.3264	  9.618809	
3.35966	  9.625779	
3.39293	  9.630592	
3.42619	  9.635766	
3.45946	  9.635278	
3.49272	  9.626365	
3.52598	  9.614037	
3.55925	  9.607603	
3.59251	  9.610055	
3.62578	  9.610712	
3.65904	  9.606626	
3.6923	  9.609994	
3.72557	  9.622049	
3.75883	  9.632789	
3.7921	  9.637154	
3.82536	  9.631048	
3.85862	  9.615257	
3.89189	  9.600019	
3.92515	  9.591575	
3.95842	  9.593252	
3.99168	  9.611730	
4.02494	  9.642913	
4.05821	  9.671579	
4.09147	  9.690126	
4.12474	  9.698457	
4.158	  9.698797	
4.19126	  9.698896	
4.22453	  9.700709	
4.25779	  9.698668	
4.29106	  9.696499	
4.32432	  9.701403	
4.35758	  9.712607	
4.39085	  9.726346	
4.42411	  9.734683	
4.45738	  9.731232	
4.49064	  9.724297	
4.5239	  9.723542	
4.55717	  9.725041	
4.59043	  9.723261	
4.6237	  9.719191	
4.65696	  9.716296	
4.69022	  9.718153	
4.72349	  9.722591	
4.75675	  9.725038	
4.79002	  9.728807	
4.82328	  9.735480	
4.85654	  9.736086	
4.88981	  9.724385	
4.92307	  9.706995	
4.95634	  9.696981	
4.9896	  9.699185	
5.02286	  9.704063	
5.05613	  9.702477	
5.08939	  9.695881	
5.12266	  9.687014	
5.15592	  9.677579	
5.18918	  9.671916	
5.22245	  9.671842	
5.25571	  9.672046	
5.28898	  9.662936	
5.32224	  9.644084	
5.3555	  9.629997	
5.38877	  9.630519	
5.42203	  9.641087	
5.4553	  9.659277	
5.48856	  9.686618	
5.52182	  9.715052	
5.55509	  9.732359	
5.58835	  9.733739	
5.62162	  9.726954	
5.65488	  9.730014	
5.68814	  9.747787	
5.72141	  9.764734	
5.75467	  9.773157	
5.78794	  9.778177	
5.8212	  9.780167	
5.85446	  9.780148	
5.88773	  9.783423	
5.92099	  9.789260	
5.95426	  9.793863	
5.98752	  9.794757	
6.02078	  9.791504	
6.05405	  9.790725	
6.08731	  9.796854	
6.12058	  9.802211	
6.15384	  9.800118	
6.1871	  9.793881	
6.22037	  9.789863	
6.25363	  9.793220	
6.2869	  9.801045	
6.32016	  9.800854	
6.35342	  9.787887	
6.38669	  9.770747	
6.41995	  9.757800	
6.45322	  9.751967	
6.48648	  9.749263	
6.51974	  9.740639	
6.55301	  9.726597	
6.58627	  9.716857	
6.61954	  9.714530	
6.6528	  9.717004	
6.68606	  9.720234	
6.71933	  9.716489	
6.75259	  9.704530	
6.78586	  9.692012	
6.81912	  9.682554	
6.85238	  9.677618	
6.88565	  9.678259	
6.91891	  9.679976	
6.95218	  9.681389	
6.98544	  9.684123	
7.0187	  9.683141	
7.05197	  9.675560	
7.08523	  9.667572	
7.1185	  9.663318	
7.15176	  9.662144	
7.18502	  9.664405	
7.21829	  9.668484	
7.25155	  9.669991	
7.28482	  9.667907	
7.31808	  9.669090	
7.35134	  9.681547	
7.38461	  9.700027	
7.41787	  9.711661	
7.45114	  9.713302	
7.4844	  9.707640	
7.51766	  9.696896	
7.55093	  9.687055	
7.58419	  9.680432	
7.61746	  9.672780	
7.65072	  9.662706	
7.68398	  9.651299	
7.71725	  9.642114	
7.75051	  9.638272	
7.78378	  9.634819	
7.81704	  9.634945	
7.8503	  9.654478	
7.88357	  9.689187	
7.91683	  9.714378	
7.9501	  9.720833	
7.98336	  9.718496	
8.01662	  9.716668	
8.04989	  9.717250	
8.08315	  9.716152	
8.11642	  9.711731	
8.14968	  9.710921	
8.18294	  9.717019	
8.21621	  9.723771	
8.24947	  9.727403	
8.28274	  9.729513	
8.316	  9.731513	
8.34926	  9.733173	
8.38253	  9.731132	
8.41579	  9.723505	
8.44906	  9.714662	
8.48232	  9.708669	
8.51558	  9.707986	
8.54885	  9.714974	
8.58211	  9.723480	
8.61538	  9.721726	
8.64864	  9.706436	
8.6819	  9.685212	
8.71517	  9.668975	
8.74843	  9.660567	
8.7817	  9.652513	
8.81496	  9.641880	
8.84822	  9.634825	
8.88149	  9.632746	
8.91475	  9.631769	
8.94802	  9.633749	
8.98128	  9.640251	
9.01454	  9.648124	
9.04781	  9.659933	
9.08107	  9.676938	
9.11434	  9.685296	
9.1476	  9.670445	
9.18086	  9.636742	
9.21413	  9.601799	
9.24739	  9.579862	
9.28066	  9.574444	
9.31392	  9.581619	
9.34718	  9.594208	
9.38045	  9.602137	
9.41371	  9.601723	
9.44698	  9.602718	
9.48024	  9.612010	
9.5135	  9.624999	
9.54677	  9.637296	
9.58003	  9.645761	
9.6133	  9.646603	
9.64656	  9.640123	
9.67982	  9.630656	
9.71309	  9.625840	
9.74635	  9.628866	
9.77962	  9.632953	
9.81288	  9.637189	
9.84614	  9.649877	
9.87941	  9.669008	
9.91267	  9.684935	
9.94594	  9.694098	
9.9792	  9.693174	
10.0125	  9.682336	
10.0457	  9.674220	
10.079	  9.676743	
10.1123	  9.679918	
10.1455	  9.672016	
10.1788	  9.657600	
10.212	  9.652788	
10.2453	  9.661851	
10.2786	  9.670816	
10.3118	  9.670084	
10.3451	  9.664551	
10.3784	  9.664755	
10.4116	  9.678146	
10.4449	  9.695170	
10.4782	  9.696849	
10.5114	  9.686975	
10.5447	  9.687916	
10.578	  9.706479	
10.6112	  9.726954	
10.6445	  9.730606	
10.6777	  9.719100	
10.711	  9.713429	
10.7443	  9.720436	
10.7775	  9.725729	
10.8108	  9.719926	
10.8441	  9.703793	
10.8773	  9.686235	
10.9106	  9.684678	
10.9439	  9.701070	
10.9771	  9.715186	
11.0104	  9.715780	
11.0436	  9.708359	
11.0769	  9.699142	
11.1102	  9.694333	
11.1434	  9.697698	
11.1767	  9.704563	
11.21	  9.707798	
11.2432	  9.701698	
11.2765	  9.687466	
11.3098	  9.678967	
11.343	  9.683886	
11.3763	  9.692866	
11.4096	  9.702016	
11.4428	  9.715385	
11.4761	  9.728608	
11.5093	  9.736951	
11.5426	  9.737775	
11.5759	  9.723877	
11.6091	  9.701668	
11.6424	  9.691494	
11.6757	  9.696542	
11.7089	  9.704357	
11.7422	  9.708574	
11.7755	  9.707601	
11.8087	  9.703728	
11.842	  9.702851	
11.8752	  9.705269	
11.9085	  9.709902	
11.9418	  9.714338	
11.975	  9.707822	
12.0083	  9.689549	
12.0416	  9.676681	
12.0748	  9.677130	
12.1081	  9.680928	
12.1414	  9.682743	
12.1746	  9.690750	
12.2079	  9.709554	
12.2412	  9.726749	
12.2744	  9.726326	
12.3077	  9.709060	
12.3409	  9.686468	
12.3742	  9.664124	
12.4075	  9.644354	
12.4407	  9.631136	
12.474	  9.626507	
12.5073	  9.631766	
12.5405	  9.643167	
12.5738	  9.651076	
12.6071	  9.655375	
12.6403	  9.660534	
12.6736	  9.660576	
12.7068	  9.652393	
12.7401	  9.642739	
12.7734	  9.636085	
12.8066	  9.631231	
12.8399	  9.625280	
12.8732	  9.622196	
12.9064	  9.631529	
12.9397	  9.651975	
12.973	  9.672740	
13.0062	  9.689143	
13.0395	  9.700597	
13.0728	  9.706195	
13.106	  9.708477	
13.1393	  9.708539	
13.1725	  9.707614	
13.2058	  9.710559	
13.2391	  9.715823	
13.2723	  9.719603	
13.3056	  9.722674	
13.3389	  9.722192	
13.3721	  9.718211	
13.4054	  9.717468	
13.4387	  9.719097	
13.4719	  9.719566	
13.5052	  9.720528	
13.5384	  9.719113	
13.5717	  9.714795	
13.605	  9.716647	
13.6382	  9.724688	
13.6715	  9.728423	
13.7048	  9.726796	
13.738	  9.724578	
13.7713	  9.720476	
13.8046	  9.711715	
13.8378	  9.696717	
13.8711	  9.678178	
13.9044	  9.665063	
13.9376	  9.656960	
13.9709	  9.644022	
14.0041	  9.627814	
14.0374	  9.616346	
14.0707	  9.611557	
14.1039	  9.613902	
14.1372	  9.620498	
14.1705	  9.626728	
14.2037	  9.633117	
14.237	  9.636465	
14.2703	  9.629819	
14.3035	  9.614882	
14.3368	  9.597553	
14.37	  9.584220	
14.4033	  9.587588	
14.4366	  9.616491	
14.4698	  9.663429	
14.5031	  9.710106	
14.5364	  9.738679	
14.5696	  9.744591	
14.6029	  9.740279	
14.6362	  9.737288	
14.6694	  9.736305	
14.7027	  9.737500	
14.736	  9.741962	
14.7692	  9.745864	
14.8025	  9.745540	
14.8357	  9.744857	
14.869	  9.751114	
14.9023	  9.762665	
14.9355	  9.769378	
14.9688	  9.766679	
15.0021	  9.759146	
15.0353	  9.755065	
15.0686	  9.761169	
15.1019	  9.774630	
15.1351	  9.784709	
15.1684	  9.785747	
15.2016	  9.779304	
15.2349	  9.768194	
15.2682	  9.755388	
15.3014	  9.742631	
15.3347	  9.734273	
15.368	  9.740469	
15.4012	  9.764120	
15.4345	  9.796264	
